# xmcd CD database file
#
# Track frame offsets:
#	188
#	10763
#	23588
#	37313
#	50813
#	70913
#	102338
#	127988
#	141863
#	159938
#	175238
#	210638
#	237938
#
# Disc length: 3376 seconds
#
# Revision: 2
# Processed by: cddbd v1.5.1PL0 Copyright (c) Steve Scherf et al.
# Submitted via: CDex 1.51
#
DISCID=b00d2e0d
DTITLE=Miles Davis - Blue Haze
DYEAR=1900
DGENRE=Jazz
TTITLE0=Morpheus
TTITLE1=Dwon
TTITLE2=Whispering
TTITLE3=Blue Room
TTITLE4=Miles Ahead
TTITLE5=The Serpents Tooth
TTITLE6=Compulsion
TTITLE7=Smooch
TTITLE8=Four
TTITLE9=That old Devil Moon
TTITLE10=I'll remember April
TTITLE11=Blue Haze
TTITLE12=When lights are low
EXTD=
EXTT0=
EXTT1=
EXTT2=
EXTT3=
EXTT4=
EXTT5=
EXTT6=
EXTT7=
EXTT8=
EXTT9=
EXTT10=
EXTT11=
EXTT12=
PLAYORDER=
